<svg xmlns="http://www.w3.org/2000/svg" viewBox="0 0 780.98 308.19"><defs><style>.cls-1, .cls-3 {
  fill: #e30613;
}

.cls-1 {
  stroke: #1d1d1b;
}

.cls-1, .cls-2, .cls-3, .cls-4 {
  stroke-miterlimit: 10;
  stroke-width: 2px;
}

.cls-2 {
  fill: #25272d;
}

.cls-2, .cls-4 {
  stroke: #e30613;
}

.cls-3 {
  stroke: #fff;
}

.cls-4 {
  font-family: MonotypeCorsiva, Monotype Corsiva;
  font-size: 172px;
}
</style></defs><g id="Petalo_3" data-name="Petalo 3"><path class="cls-1" d="M189.43,17.67A195.46,195.46,0,0,0,230.27,0,195.42,195.42,0,0,0,240,43.44c10.46,29.62,12.67,61.38-7,85.77,4.46-16.8-.25-35-8.66-51.65A146.42,146.42,0,0,1,212.84,46,146.84,146.84,0,0,1,184,63.17C151.09,77.74,125.33,105.3,149.84,155c1.9,3.86,4,7.6,6,11-11.29-5.13-23.88-24.11-27-33.31C105,63.15,143.62,31.26,189.43,17.67Z" transform="translate(1.67 1.69)"></path></g><g id="Petalo_2" data-name="Petalo 2"><path class="cls-2" d="M24.89,87.23a195.24,195.24,0,0,0-4.2-44.3A194.92,194.92,0,0,0,65,47.12c31.41-.79,62.3,6.91,79.42,33.16-14.61-9.43-33.34-10.56-51.8-7.7A147.43,147.43,0,0,1,59.1,73.72a146.57,146.57,0,0,1,7.4,32.7c3.7,35.82,22,68.83,76.75,60.84,4.25-.61,8.45-1.42,12.35-2.35-8.36,9.15-30.31,15.26-40,15.43C42.1,181.55,23.67,135,24.89,87.23Z" transform="translate(1.67 1.69)"></path></g><g id="Petalo_1" data-name="Petalo 1"><path class="cls-3" d="M43.62,267.15A195.09,195.09,0,0,0,0,258.38a195.11,195.11,0,0,0,16.8-41.2c8.31-30.3,24.59-57.66,54.68-66.47C58.23,162,51.74,179.58,49.15,198.09a146.9,146.9,0,0,1-8.59,32.4A147.19,147.19,0,0,1,74,232.85c35.36,6.79,72.24-1.16,80.41-55.92.63-4.25,1.07-8.51,1.3-12.5,6.36,10.64,5.87,33.42,3.22,42.78C138.9,277.9,89,282.1,43.62,267.15Z" transform="translate(1.67 1.69)"></path></g><g id="Texto"><text class="cls-4" transform="translate(166.44 254.45)">Måneskin</text></g></svg>