<svg version="1.1" id="svg2" xmlns="http://www.w3.org/2000/svg" x="0" y="0" viewBox="0 0 1529 412" style="enable-background:new 0 0 1529 412" xml:space="preserve"><g id="g3026" transform="translate(-17.797 493.356)"><path id="path3028" d="M465.6-84.4c6.2-2.8 18-13.8 25.1-23.4 4.8-6.5 8.6-13 7.5-13-.3 0-2.7 1.1-5.4 2.5-7.1 3.7-10.8 4-16.1 1.3-10.6-5.5-18.4-23.9-23.9-56.8-7.1-42.3-9.4-90.5-8.9-181.3.4-60.4.5-63.3 2.5-70.6 2.5-9 5.1-14.5 9.2-19.2 1.6-1.9 3-3.7 3-4s-7-.6-15.5-.6c-16.5 0-18-.5-13.4-4.6 3.2-2.8 5.8-9.3 5.8-14.4.1-13.8-8.9-23.6-22.3-24.7-14.2-1.1-25.6 9.2-25.6 23.2 0 6.1 1.7 11.1 5.5 16.1 1.4 1.8 2.5 3.5 2.5 3.8s-9.2.6-20.5.6c-12.1 0-20.5.4-20.5.9s2.3 2.2 5 3.7c5.3 2.9 8.3 6.7 9.4 12 1.6 7.4-8.4 29.7-25.7 57.9-40.6 65.9-64.7 124-72.3 174.4-1.1 7.6-1.4 15.2-1.1 28.8.4 16.5.8 19.7 3.4 30 4.1 15.7 7.6 24 13.9 33.6 9.3 14 20 22.1 32.7 24.4 18.1 3.3 35.9-9.1 51.2-35.7 1-1.8 1.6-3.5 1.3-3.7-.3-.3-4 1.3-8.3 3.5-6.3 3.2-8.8 4-13.2 4-5.7 0-11.5-1.9-14.8-4.8-6.6-5.8-13.2-21.2-17.3-40.2-2.5-11.6-2.5-45.3 0-62.4 2.3-15.8 6.1-35.2 9.7-49.8 5.6-22.6 5.6-22.6 7.9-13.1.7 2.7 2.6 7.2 4.3 9.9 3.2 5 10.3 11 11.9 10 .5-.3-.2-2.7-1.5-5.3-6.7-13.1-4.9-29.8 4.1-38.3 3.9-3.7 10.9-6.6 17.5-7.4 16.2-1.9 29.8 10.3 35.5 31.6 1.5 5.6 1.8 14.9 2.4 71.4.6 60.2.8 65.8 2.8 76.4 3.7 20.3 7.9 31.1 16.5 42.5 10.7 13.7 21.7 17.1 35.7 10.8zM343.8-323.1c0-1.8 25.3-59 39.4-89 9.7-20.8 7.2-19 26.8-19.3 15.7-.3 16.5-.2 18.3 1.8 1.7 1.9 1.8 2.5.7 5.3-6.9 17.6-11.4 38.4-14.2 66.1-3 28.6-2.9 28.5-4.1 28.5-.6 0-3.1-1.8-5.6-4s-7.1-5.2-10.2-6.7c-4.7-2.3-6.9-2.8-13.6-2.8-10.7 0-18.1 3.4-28.6 13.3-7 6.6-8.9 8-8.9 6.8zm62.1-135.2c-5-2.5-7.4-6.3-7.4-11.6 0-9.9 9.9-16.3 18.7-12.1 10.3 4.9 10 19.7-.4 23.9-5.1 2-6.7 1.9-10.9-.2zM69.2-84.3c9.5-5.6 17.2-21.9 22.6-48.1 1.1-5.5 7.7-48.8 14.5-96.4 6.9-47.5 12.7-87.5 13-88.8 1.3-5.5 3.2 1 10.9 36 9.3 42.7 13.7 73.3 13.9 97.3.2 18.4-1.1 24.9-5.6 30.1-2.6 3-3.6 3.4-7.9 3.4-2.7 0-4.9.4-4.9.9 0 1.6 10.6 10.9 14.8 13 2.7 1.4 6 2.1 9.7 2.1 5.1 0 5.8-.3 9.4-3.9 8.2-8.2 12.5-21.2 17.1-51.6 10.6-70 21.8-119.2 30.5-133.9 2.8-4.7 3.9-5.4 4.9-2.9.3.9.6 50 .6 109.2 0 115.8 0 116.1 5.2 125.3 3.7 6.6 8.8 10.1 15.6 10.6 6.9.5 11.8-1.6 18.8-8 7.3-6.7 23.4-32.2 21.9-34.7-.3-.5-2.6-.2-5.1.7-5.5 1.9-12.6 1.3-16.3-1.4-1.4-1-4-4.6-5.6-7.9l-3-6-.3-42c-.4-54.3 2.1-99.5 7.9-141.4 6.8-48.5 17.7-74.9 33.9-81.7 7.9-3.3 18.1.6 24.3 9.3 1.7 2.4 3.6 4.4 4.1 4.4s.6-2.4.2-5.7c-3.2-26.5-16.3-44.4-37.5-51.2-31.2-10-61.5 21.1-80.2 82.4-9.7 31.7-23.2 92.7-30.4 136.7-1.7 10.5-3.1 16.6-3.8 16.4-3.5-1.2-23.7-85.8-29.8-124.6-2.9-18.7-3.2-50.2-.5-64.9 3.2-17.8 8-28 14.6-31.4 3.7-1.9 11.7-1.9 15.1 0 3.2 1.8 4 1.8 4 0 0-2.7-8.1-10.4-13.9-13.1-4.9-2.3-6.9-2.7-15.1-2.7-13.3 0-21.6 2.9-34.5 12.4-7.6 5.6-21.5 20.4-27.4 29.3-8.3 12.3-20.5 38.5-18.8 40.2.3.3 2.1-.6 3.9-2.2 6.8-5.7 14.8-7 21.6-3.6 11.1 5.7 13.3 16.3 9.2 45.6-5.3 37.5-29.6 141-41.2 174.8-4.5 13.3-11.3 26.8-14.8 29.8-3.6 3-8.9 3.4-13 1.1-5.2-3-5.3-1-.4 8.8 7.6 15.1 15.8 24 26.2 28.3 7.8 3.2 16.1 3.3 21.6 0zm695.5.9c11.2-2.6 19.5-7.7 30.7-18.9 12-11.9 18.1-20.9 27.9-41 7.3-15 15.1-35.3 14.3-37.5-.2-.7-2.6 2.6-5.3 7.2-10 17.2-20.7 28.3-33.3 34.5-7.7 3.8-7.7 3.8-20.3 3.8-14.6 0-19.4-1.5-31.4-9.5-23.5-15.7-41-43.4-50.2-79.4-4.5-17.8-5.8-29.1-5.4-49.3.5-22 .1-21.4 12.9-17 11 3.7 25.4 4.9 34.8 2.9 14.7-3.2 29.9-14.4 40.1-29.7 6.5-9.6 6.4-11.4-.2-6.2-10.2 8.1-21.2 11.9-34.3 11.9-31.2.1-51.1-24.5-49.1-60.9 1.1-21.5 9.3-37.1 24.9-47.4 26.2-17.3 67-11.3 76.5 11.3 2.3 5.5 1.9 15.3-1.1 24.7-5 15.5-15.4 27.4-29.7 34.2-4.3 2-7.9 4-7.9 4.4 0 2.3 21.3-1.1 30.9-4.9 25.2-10 42.7-34.6 42.4-59.8-.1-15.6-6.8-25.8-21.4-32.8-14.2-6.7-14-6.7-90.9-6.7-38 0-69.1.2-69.1.5s2.8 3.2 6.2 6.4c6.2 5.8 14.2 17.9 16.7 25.1 4 11.9 3.4 35.6-2.4 87.4-5.4 48.2-6.5 60.6-7.2 79.4-2 55.9 14.4 113.9 40.6 144.4 17 19.2 39.4 27.8 60.3 22.9zm325.6-1.1c4.8-2 12.5-9.3 16.6-15.6 3.6-5.6 10-20.7 9.3-21.9-.3-.4-3 .6-6 2.2-13.9 7.3-23.5 1.4-27.9-17.3-2.9-12.3-2.9-60.2 0-60.2.9 0 7.4 10.4 30.3 49 18 30.3 31.1 46 47.2 56.6 21.3 14 41.8 10.9 56.7-8.6 6-7.9 10.8-18.1 12.9-27.2 3-13.5.7-38-4.7-50.7-1.2-2.8-1.3-2.5-1.9 6-.9 12.5-4.6 19-13.5 23.8-3.4 1.9-5.6 2.2-15.5 2.2-10.9 0-11.9-.2-18.4-3.3-20.8-9.8-42.4-32.2-67.3-69.7-9.7-14.6-15.3-24.1-15.3-26 0-.8 2.6-2.8 5.8-4.6 20.6-11.6 48.5-32 68.1-49.9 37.9-34.4 62.4-78.1 58.4-103.9-4.1-26.2-27.5-40.7-72.2-45-5.7-.5-10.8-.6-11.3-.2-.5.5 2 2.2 5.5 4 11.2 5.5 19.4 16.2 23.4 30.5 2.1 7.6 2.9 29 1.4 38.3-4.9 30.2-28.3 64.3-65.5 95.5-15.2 12.7-29.5 22.1-31.1 20.5-.2-.2.5-5.4 1.5-11.5 7.4-44 11-123.7 6.7-148.3-3.4-19.6-11.5-29.8-23.5-29.8-14.3 0-28.1 8.9-35.1 22.7-3.2 6.3-6.5 16.3-5.6 17.1.3.3 1.8-.2 3.4-1.2 4.2-2.4 6.5-2.1 9.5 1.4 2.8 3.3 4.9 9.6 6.7 19.9.8 4.4 1.4 45.2 1.9 126.4.7 117.2 1 125.2 4.1 142.8 1.2 6.5 5.3 18.7 7.7 22.6 2.3 3.8 7.3 8.9 10.8 11 7.7 4.8 18.9 5.8 26.9 2.4zm190.3.6c8.5-3.9 21.1-18.6 28.6-33.7 3.9-7.7 3.6-8.4-2-6.7-12.5 3.7-20.1-.3-23.8-12.6-1.4-4.7-1.6-17.1-1.6-106.8 0-107.8 0-108.6 4.8-119.2 1.1-2.4 3.4-6 5.2-8.1 4.4-5.1 3.4-5.6-11.4-5.6-10.4 0-11.7-.2-10.6-1.5.7-.8 1.7-1.5 2.3-1.5 2.5 0 15.8-9.4 21-14.9 14.6-15.3 16.8-35.9 5.2-47.6-13.2-13.1-36.5-8.1-49.9 10.7-5 7.1-9.7 15.9-9.7 18.3 0 1.1 1.8 0 5.5-3.3 7.2-6.4 13.6-9.5 20.6-10.1 4.8-.3 6-.1 8.4 2 3.6 3.1 4.4 9.8 2.2 18-3.9 15-15.4 25.7-30.9 28.8-8.4 1.7-8.2 1.5-4.9 5.7 4.3 5.3 6.8 13.1 8 25.1.7 6.6 1.1 50.9 1.1 122.6 0 120.3 0 121.6 5 131.2 5.2 10.1 16.5 14 26.9 9.2zm72.7-.9c6.1-3.5 12.8-10.4 18.7-19.1 5.5-8.2 11.5-19.7 10.7-20.5-.3-.3-2.4-.2-4.5.4s-6.3 1.1-9.2 1.1c-4.9 0-5.7-.3-9.1-3.8-7.2-7.2-7-4.5-7-96.4 0-49.7.4-81.6.9-81.2.5.3 1.9 3.6 3.1 7.3 10.7 32.5 32.1 77.9 55.2 117.1 25.4 43.1 51.8 76.8 69.6 88.8 10 6.8 14.6 8.5 23.2 8.5 12.4.1 22.2-5.8 31.5-18.9 5.2-7.3 10.5-17.7 10.5-20.5 0-2 0-2-3.2 0-4.7 2.9-10.8 2.6-14.7-.6-7.4-6.2-16-30.1-28.5-79.3-19.8-78.1-28.8-123.3-29-146.4-.1-9.5.2-11.5 2.1-15.1 6.5-12.1 18.8-14.7 29.6-6.2 2.1 1.6 4.1 2.7 4.5 2.3 1.8-1.8-9.9-27.1-18.6-40.1-13-19.5-33.3-36.2-49-40.4-4.9-1.3-17.3-1.6-22.3-.5-6.5 1.4-13.2 5.9-17.6 11.8-3.5 4.8-2.9 5.9 2 3.6 5.4-2.4 9.1-2.4 14.4 0 10.3 4.7 13.2 14.3 30.8 102.5 14.1 70.6 21.2 116.8 22.2 143.4.5 14.8.5 15.6-1.6 18l-2.1 2.5-5.1-5.5c-12-12.9-41.3-54.8-54.9-78.4-13.4-23.4-25.9-51.5-32.4-72.9-8.8-28.9-11.9-70.4-7-93.8 2.2-10.8 4.8-17.3 9.6-24.1 4.7-6.7 4.3-7.5-4.1-7.4-14.5 0-25.2 3.1-32.2 9.1-8.1 7-14.5 20.2-17.9 36.8-2.1 10.4-2.1 11.2-2 151.3.1 153.2 0 149 5.7 159.4 3.7 6.9 8.9 9.9 16.9 9.9 4.6.2 6.8-.4 10.8-2.7zm-702.2.4c9.6-2.5 18-9.2 25.3-20.2 4.3-6.4 9.8-18.1 9-18.9-.3-.3-3 .7-5.9 2.3-4.2 2.3-6.5 2.9-11.4 2.9-8.4 0-13.5-3.5-18.1-12.5-4.9-9.7-6.3-18.3-6.9-44.2-.6-23.1.2-42.1 3.7-90.6 5.8-81 6.9-122.1 3.7-142.5-4.9-31-15.3-41.5-41.2-41.4-9.1 0-12.5.5-19.5 2.7-4.7 1.5-10.1 3.5-12.1 4.5-5.6 2.8-15.4 14-19.4 22.1-3.6 7.3-7.6 20.8-7.6 25.6 0 2.3.5 2.1 5.5-3.2 6.3-6.6 10.4-8.7 17.3-8.7 14.9 0 26.9 20 32.7 54.5 5 29.9 6.9 70.7 6.3 135-.5 50.1-.9 55.1-4.1 54.1-1.9-.6-14.1-15.1-24.9-29.5-44.1-58.9-71.7-116-78.4-162-2.1-14.8-1.5-35 1.5-46.5 4.2-16.3 14.5-32.9 26.1-42.3 3-2.4 5.7-4.9 5.9-5.4.2-.6-9-.8-23.5-.6-23 .3-24 .4-28.9 2.8-11.5 5.6-20 18.2-25.3 37.5l-2.7 10V-284c0 106.9.1 115.4 1.8 122.5 3 12.8 7.9 18.6 17.1 20.3 5.2.9 13.4-3 18.4-9 7.4-8.8 21.7-35.3 19.9-37-.3-.3-2.8.2-5.7 1.1-9.2 2.7-15.8-.8-19.6-10.4-1.6-4.1-1.8-9.8-2.1-63.2-.3-57.8.1-65.3 2.8-54.5 11.3 45.5 51.2 125.7 88.4 177.5C602-105 621-88 637.8-84.3c7.2 1.6 6.7 1.6 13.3-.1zM958-86.2c41.3-10.9 67.8-40.9 74.5-84.1 2.3-14.7 1.3-37.8-2-50.7-4.9-18.8-13.5-33.7-26.8-46.3-12.3-11.7-21.2-16.2-68.3-34.9-30.6-12.1-42.8-17.9-54.9-25.9-24.2-16.1-32.3-38-24-64.6 6.6-21.1 23-33.9 46.5-36.4 18.6-2 44.2 7.8 53.5 20.4 6.9 9.3 7.9 13.6 7.8 32.6 0 15.5-.3 17.7-2.8 25.8-3.1 10.1-6.6 15.7-13.4 21.5-6 5.1-4.5 5.2 9.3.6 30.7-10.3 48-26.4 51.4-47.9 2.2-13.5-2.4-29.6-11.7-41.5-16.7-21.3-50.9-34.4-81.7-31.1-18.2 1.9-32.8 7.6-45.7 17.9-12 9.6-19.4 19.9-26 36.4-10.5 26.3-10.2 49.6.9 68.8 4.7 8.1 16.6 20.2 25.8 26.2 12.6 8.2 31 17.6 47.6 24.4 32.8 13.3 50 23.5 65.5 38.9 14.4 14.3 21.6 27.4 24.3 44.5 2.3 14.2.4 32.3-4.9 46.2-6.2 16.4-22.1 32.9-37.9 39.3-31.7 12.9-64.7 1.2-79-27.8-5.9-11.9-7.2-18.1-7.8-34.9-1-26.8 3.6-45.4 14.8-60.5 2.1-2.9 3.9-5.4 3.9-5.7 0-.8-5.4 1-11 3.9-13.5 6.7-28.3 20.4-35.3 32.5-6 10.4-9.7 25.3-9.7 39.1 0 7.8 2.6 22.1 5.2 28.2 9.9 23.5 32.6 41.1 60.8 47.1 4.5 1 11.8 1.3 24 1.1 14.9-.5 18.8-.9 27.1-3.1z" style="fill:#e30613;stroke:#1d1d1b;stroke-width:2px;stroke-miterlimit:10"/></g></svg>