<svg xmlns="http://www.w3.org/2000/svg" xml:space="preserve" width="300" height="300"><g transform="scale(.75)"><defs><clipPath id="triangle-clip"><path d="M170.097 245.169 250.23 200l-80.133-49.169z"/></clipPath></defs><path fill="#fff" d="M0 0h400v400H0z" clip-path="url('#triangle-clip')"/><path fill="red" d="M199.917 105.63s-84.292 0-105.448 5.498c-11.328 3.165-20.655 12.492-23.82 23.987-5.498 21.156-5.498 64.968-5.498 64.968s0 43.98 5.497 64.802c3.166 11.495 12.326 20.656 23.82 23.82 21.323 5.665 105.449 5.665 105.449 5.665s84.459 0 105.614-5.498c11.495-3.165 20.655-12.16 23.654-23.82 5.664-20.99 5.664-64.802 5.664-64.802s.166-43.98-5.664-65.135c-2.999-11.495-12.16-20.655-23.654-23.654-21.155-5.83-105.614-5.83-105.614-5.83zm-26.82 53.974 70.132 40.48-70.133 40.312v-80.792z"/></g></svg>